<svg width="42" height="42" viewBox="0 0 42 42" fill="none" xmlns="http://www.w3.org/2000/svg">
<path d="M39.6268 19.7081C40.2466 20.4503 40.2466 21.5296 39.6268 22.2719L37.3684 24.9765C36.6903 25.7887 36.3615 26.8365 36.4542 27.8905L36.768 31.4614C36.8549 32.4492 36.2047 33.3515 35.2402 33.5818L32.1382 34.3224C31.0572 34.5806 30.1323 35.2768 29.5852 36.2443L27.9689 39.1028C27.4598 40.0033 26.348 40.3669 25.4052 39.9414L22.6498 38.6977C21.6003 38.224 20.3976 38.2255 19.3493 38.7019L16.596 39.9532C15.6525 40.382 14.5377 40.0189 14.0276 39.1168L12.4148 36.2644C11.8677 35.2969 10.9428 34.6006 9.86176 34.3425L6.75922 33.6018C5.79485 33.3715 5.14475 32.4695 5.23133 31.4818L5.54619 27.8899C5.63856 26.8361 5.30979 25.7887 4.63182 24.9768L2.37029 22.2684C1.75138 21.5272 1.75043 20.4496 2.36803 19.7073L4.63635 16.9811C5.31153 16.1696 5.63855 15.1241 5.54611 14.0725L5.2326 10.5057C5.14559 9.51574 5.79861 8.61207 6.76582 8.38396L9.85345 7.65575C10.9389 7.39974 11.8682 6.70218 12.4172 5.73136L14.0311 2.87709C14.5402 1.97664 15.652 1.61302 16.5948 2.03858L19.3544 3.28415C20.4006 3.75639 21.5993 3.75639 22.6456 3.28415L25.4052 2.03858C26.348 1.61301 27.4598 1.97664 27.9689 2.87709L28.8394 2.38489L27.9689 2.87709L29.5852 5.73564C30.1323 6.70312 31.0572 7.39938 32.1382 7.65749L35.2402 8.3981C36.2047 8.6284 36.8549 9.5307 36.768 10.5185L36.4542 14.0894C36.3615 15.1435 36.6903 16.1913 37.3684 17.0035L39.6268 19.7081ZM21 32.0234C22.6066 32.0234 23.9091 30.721 23.9091 29.1143V28.9191C23.9091 27.3125 22.6066 26.01 21 26.01C19.3934 26.01 18.0909 27.3125 18.0909 28.9191V29.1143C18.0909 30.721 19.3934 32.0234 21 32.0234ZM21 23.9967C22.6066 23.9967 23.9091 22.6942 23.9091 21.0876V12.8656C23.9091 11.259 22.6066 9.95652 21 9.95652C19.3934 9.95652 18.0909 11.259 18.0909 12.8656V21.0876C18.0909 22.6942 19.3934 23.9967 21 23.9967Z" stroke="url(#paint0_linear)" stroke-width="2"/>
<defs>
<linearGradient id="paint0_linear" x1="42" y1="1.2517e-06" x2="-1.2517e-06" y2="42" gradientUnits="userSpaceOnUse">
<stop stop-color="#FFC3C3"/>
<stop offset="1" stop-color="#FF9595"/>
</linearGradient>
</defs>
</svg>
