<svg width="42" height="42" viewBox="0 0 42 42" fill="none" xmlns="http://www.w3.org/2000/svg">
<g clip-path="url(#clip0)">
<path d="M41.919 22.94C41.5419 19.147 39.8474 15.5711 37.1474 12.871C34.84 10.5637 32.0157 9.08098 29.044 8.42168V6.3374C30.2578 6.03544 31.16 4.93678 31.16 3.6309C31.16 2.09296 29.9088 0.841797 28.3709 0.841797H22.4645C20.9266 0.841797 19.6754 2.09296 19.6754 3.6309C19.6754 4.9367 20.5776 6.03536 21.7913 6.3374V8.42751C18.8287 9.08959 16.0138 10.5703 13.713 12.8711C13.2095 13.3746 12.7451 13.9029 12.3201 14.4518C12.2995 14.4503 12.279 14.4487 12.258 14.4487H6.41224C5.95925 14.4487 5.59191 14.816 5.59191 15.269C5.59191 15.7221 5.95925 16.0893 6.41224 16.0893H11.2039C10.6025 17.0963 10.1175 18.1538 9.74834 19.2424H0.820325C0.367342 19.2424 0 19.6096 0 20.0627C0 20.5157 0.367342 20.883 0.820325 20.883H9.28477C9.04835 21.9208 8.91267 22.977 8.87764 24.0361H5.25008C4.7971 24.0361 4.42976 24.4033 4.42976 24.8564C4.42976 25.3095 4.7971 25.6767 5.25008 25.6767H8.90381C8.97305 26.7386 9.14376 27.7948 9.41602 28.8298H4.10163C3.64864 28.8298 3.2813 29.1971 3.2813 29.6501C3.2813 30.1032 3.64864 30.4705 4.10163 30.4705H9.93955C10.7443 32.5993 12.0019 34.5946 13.713 36.3056C16.4156 39.0083 19.9952 40.7032 23.7921 41.0783C24.334 41.1318 24.8764 41.1583 25.4179 41.1583C28.619 41.1583 31.7794 40.2319 34.461 38.4856C34.8407 38.2384 34.9481 37.7302 34.7008 37.3505C34.4536 36.9709 33.9454 36.8635 33.5657 37.1108C27.6957 40.9332 19.8343 40.1068 14.8731 35.1455C9.05188 29.3243 9.05188 19.8526 14.8731 14.0313C20.6942 8.21021 30.1659 8.21021 35.9872 14.0313C40.9419 18.9861 41.7729 26.8408 37.963 32.7079C37.7163 33.0879 37.8243 33.596 38.2042 33.8427C38.5843 34.0894 39.0923 33.9814 39.3389 33.6014C41.3745 30.4665 42.2908 26.6803 41.919 22.94ZM21.3161 3.63099C21.3161 2.99769 21.8312 2.48253 22.4645 2.48253H28.3709C29.0042 2.48253 29.5193 2.99769 29.5193 3.63099C29.5193 4.26428 29.0042 4.77944 28.3709 4.77944H28.2237H22.6116H22.4645C21.8312 4.77944 21.3161 4.26419 21.3161 3.63099ZM23.4319 8.14548V6.42009H27.4034V8.14253C26.0846 7.98568 24.7504 7.98667 23.4319 8.14548Z" fill="url(#paint0_linear)"/>
<path d="M36.5674 34.9048C36.3508 34.9048 36.14 34.9926 35.9875 35.1451C35.8341 35.2977 35.7471 35.5094 35.7471 35.7251C35.7471 35.9408 35.8341 36.1525 35.9875 36.3051C36.14 36.4585 36.3509 36.5454 36.5674 36.5454C36.7831 36.5454 36.9939 36.4585 37.1473 36.3051C37.2999 36.1525 37.3877 35.9408 37.3877 35.7251C37.3877 35.5094 37.3 35.2977 37.1473 35.1451C36.9939 34.9926 36.783 34.9048 36.5674 34.9048Z" fill="url(#paint1_linear)"/>
<path d="M25.4302 11.8625C18.4133 11.8625 12.7046 17.5712 12.7046 24.5882C12.7046 31.6052 18.4133 37.3138 25.4302 37.3138C32.4471 37.3138 38.1558 31.6052 38.1558 24.5882C38.1558 17.5712 32.4471 11.8625 25.4302 11.8625ZM25.4302 35.6731C19.3179 35.6731 14.3452 30.7004 14.3452 24.5882C14.3452 18.4759 19.3179 13.5032 25.4302 13.5032C31.5425 13.5032 36.5152 18.4759 36.5152 24.5882C36.5152 30.7004 31.5425 35.6731 25.4302 35.6731Z" fill="url(#paint2_linear)"/>
<path d="M30.6193 18.2393L26.5563 22.3023C26.2165 22.1343 25.8343 22.0394 25.4303 22.0394C25.0262 22.0394 24.6441 22.1343 24.3043 22.3023L22.4859 20.4839C22.1655 20.1635 21.6462 20.1635 21.3257 20.4839C21.0054 20.8042 21.0054 21.3236 21.3257 21.644L23.1441 23.4624C22.976 23.8022 22.8812 24.1843 22.8812 24.5884C22.8812 25.9939 24.0247 27.1374 25.4303 27.1374C26.8359 27.1374 27.9794 25.9939 27.9794 24.5884C27.9794 24.1843 27.8844 23.8022 27.7164 23.4624L31.6602 19.5186L31.7794 19.3994C32.0998 19.079 32.0998 18.5596 31.7794 18.2393C31.4591 17.9189 30.9398 17.9189 30.6193 18.2393ZM25.4303 25.4969C24.9294 25.4969 24.5218 25.0893 24.5218 24.5884C24.5218 24.0875 24.9294 23.68 25.4303 23.68C25.9312 23.68 26.3387 24.0875 26.3387 24.5884C26.3387 25.0893 25.9312 25.4969 25.4303 25.4969Z" fill="url(#paint3_linear)"/>
<path d="M34.2009 23.7778H33.4409C32.9879 23.7778 32.6206 24.1451 32.6206 24.5981C32.6206 25.0512 32.9879 25.4185 33.4409 25.4185H34.2009C34.6539 25.4185 35.0213 25.0512 35.0213 24.5981C35.0213 24.1451 34.6539 23.7778 34.2009 23.7778Z" fill="url(#paint4_linear)"/>
<path d="M17.4191 23.7578H16.6592C16.2062 23.7578 15.8389 24.1251 15.8389 24.5781C15.8389 25.0312 16.2062 25.3984 16.6592 25.3984H17.4191C17.8721 25.3984 18.2394 25.0312 18.2394 24.5781C18.2394 24.1251 17.8721 23.7578 17.4191 23.7578Z" fill="url(#paint5_linear)"/>
<path d="M25.4399 17.3976C25.8929 17.3976 26.2603 17.0304 26.2603 16.5773V15.8174C26.2603 15.3643 25.8929 14.9971 25.4399 14.9971C24.987 14.9971 24.6196 15.3643 24.6196 15.8174V16.5773C24.6196 17.0304 24.987 17.3976 25.4399 17.3976Z" fill="url(#paint6_linear)"/>
<path d="M25.4199 31.7788C24.9669 31.7788 24.5996 32.1461 24.5996 32.5991V33.3591C24.5996 33.8121 24.9669 34.1794 25.4199 34.1794C25.8729 34.1794 26.2402 33.8121 26.2402 33.3591V32.5991C26.2402 32.1461 25.8729 31.7788 25.4199 31.7788Z" fill="url(#paint7_linear)"/>
<path d="M0.820312 28.8293C0.60457 28.8293 0.39293 28.9171 0.240352 29.0697C0.0877734 29.2223 0 29.4339 0 29.6497C0 29.8662 0.0876914 30.077 0.240352 30.2296C0.393012 30.3822 0.60457 30.47 0.820312 30.47C1.03605 30.47 1.2477 30.3822 1.40019 30.2296C1.55277 30.077 1.64062 29.8654 1.64062 29.6497C1.64062 29.4339 1.55285 29.2223 1.40019 29.0697C1.2477 28.9171 1.03605 28.8293 0.820312 28.8293Z" fill="url(#paint8_linear)"/>
</g>
<defs>
<linearGradient id="paint0_linear" x1="42" y1="0.841798" x2="1.71721" y2="42.8067" gradientUnits="userSpaceOnUse">
<stop stop-color="#9BFEDF"/>
<stop offset="1" stop-color="#5EFDC3"/>
</linearGradient>
<linearGradient id="paint1_linear" x1="37.3877" y1="34.9048" x2="35.7471" y2="36.5454" gradientUnits="userSpaceOnUse">
<stop stop-color="#9BFEDF"/>
<stop offset="1" stop-color="#5EFDC3"/>
</linearGradient>
<linearGradient id="paint2_linear" x1="38.1558" y1="11.8625" x2="12.7046" y2="37.3138" gradientUnits="userSpaceOnUse">
<stop stop-color="#9BFEDF"/>
<stop offset="1" stop-color="#5EFDC3"/>
</linearGradient>
<linearGradient id="paint3_linear" x1="32.0197" y1="17.999" x2="23.0264" y2="28.7596" gradientUnits="userSpaceOnUse">
<stop stop-color="#9BFEDF"/>
<stop offset="1" stop-color="#5EFDC3"/>
</linearGradient>
<linearGradient id="paint4_linear" x1="35.0213" y1="23.7778" x2="33.4927" y2="26.0145" gradientUnits="userSpaceOnUse">
<stop stop-color="#9BFEDF"/>
<stop offset="1" stop-color="#5EFDC3"/>
</linearGradient>
<linearGradient id="paint5_linear" x1="18.2394" y1="23.7578" x2="16.7109" y2="25.9944" gradientUnits="userSpaceOnUse">
<stop stop-color="#9BFEDF"/>
<stop offset="1" stop-color="#5EFDC3"/>
</linearGradient>
<linearGradient id="paint6_linear" x1="26.2603" y1="14.9971" x2="24.0237" y2="16.5256" gradientUnits="userSpaceOnUse">
<stop stop-color="#9BFEDF"/>
<stop offset="1" stop-color="#5EFDC3"/>
</linearGradient>
<linearGradient id="paint7_linear" x1="26.2402" y1="31.7788" x2="24.0036" y2="33.3074" gradientUnits="userSpaceOnUse">
<stop stop-color="#9BFEDF"/>
<stop offset="1" stop-color="#5EFDC3"/>
</linearGradient>
<linearGradient id="paint8_linear" x1="1.64062" y1="28.8293" x2="-4.88944e-08" y2="30.47" gradientUnits="userSpaceOnUse">
<stop stop-color="#9BFEDF"/>
<stop offset="1" stop-color="#5EFDC3"/>
</linearGradient>
<clipPath id="clip0">
<rect width="42" height="42" fill="white"/>
</clipPath>
</defs>
</svg>
