<svg width="70" height="70" viewBox="0 0 70 70" fill="none" xmlns="http://www.w3.org/2000/svg">
<path d="M0 35C0 15.67 15.67 0 35 0C54.33 0 70 15.67 70 35C70 54.33 54.33 70 35 70C15.67 70 0 54.33 0 35Z" fill="white"/>
<path fill-rule="evenodd" clip-rule="evenodd" d="M25.2566 21.6164C25.2566 23.9047 23.5341 25.7357 20.7684 25.7357H20.7178C18.0549 25.7357 16.3334 23.9047 16.3334 21.6164C16.3334 19.2798 18.1073 17.5 20.8207 17.5C23.5341 17.5 25.2051 19.2798 25.2566 21.6164ZM24.7342 28.9885V52.8202H16.8024V28.9885H24.7342ZM53.3388 52.8202L53.3391 39.1558C53.3391 31.8358 49.4262 28.4289 44.2067 28.4289C39.9955 28.4289 38.11 30.742 37.0573 32.3647V28.9892H29.1246C29.2291 31.2254 29.1246 52.8208 29.1246 52.8208H37.0573V39.5113C37.0573 38.799 37.1088 38.0885 37.3185 37.5786C37.8917 36.1556 39.197 34.6824 41.3883 34.6824C44.2596 34.6824 45.4074 36.8677 45.4074 40.0702V52.8202H53.3388Z" fill="#01152d"/>
</svg>
