<svg width="42" height="42" viewBox="0 0 42 42" fill="none" xmlns="http://www.w3.org/2000/svg">
<g clip-path="url(#clip0)">
<path d="M31.8006 38.0639C31.5734 37.6723 31.0716 37.5389 30.6795 37.7661L30.6479 37.7843C30.2562 38.0116 30.1229 38.5136 30.3501 38.9054C30.5023 39.1677 30.7775 39.3142 31.0603 39.3142C31.1999 39.3142 31.3417 39.2783 31.4712 39.2032L31.5028 39.185C31.8946 38.9577 32.0279 38.4557 31.8006 38.0639Z" fill="url(#paint0_linear)"/>
<path d="M39.1863 10.5075C36.3823 5.6508 31.8549 2.17686 26.4381 0.7254C21.0214 -0.726061 15.3635 0.0188646 10.5069 2.82277C5.65028 5.62668 2.17625 10.1542 0.724875 15.5709C-0.726504 20.9877 0.0183397 26.6456 2.82225 31.5022C5.33741 35.8586 9.33496 39.1695 14.0785 40.8247C16.3271 41.6093 18.6744 42.0008 21.0181 42.0008C23.5664 42.0008 26.1101 41.5377 28.5145 40.6136C28.9374 40.4511 29.1484 39.9765 28.9858 39.5537C28.8232 39.1308 28.3486 38.9196 27.9259 39.0824C21.5258 41.5423 14.5973 40.4246 9.42084 36.5391L10.1558 32.7029L10.5099 32.5879C11.8481 32.1531 12.5831 30.7107 12.1485 29.3724L11.8886 28.5727C11.8285 28.3876 11.8288 28.192 11.8894 28.0071C12.1174 27.3121 12.0359 26.5518 11.6659 25.9208C11.2958 25.2899 10.672 24.8475 9.95413 24.7072L8.10268 24.3454L4.53039 21.6293C4.31637 21.4666 4.03623 21.4191 3.78046 21.5021L1.68899 22.1815C1.64461 21.4334 1.64395 20.6857 1.68612 19.9418C1.76864 20.0187 1.82237 20.0709 1.85543 20.1052C1.89636 20.1734 1.94706 20.2359 2.00645 20.29C2.17724 20.4455 2.33195 20.5161 2.65679 20.5161C2.9553 20.516 3.39721 20.4565 4.12687 20.3488C4.81889 20.2465 5.5073 20.1312 5.51411 20.1301C5.78998 20.0839 6.02319 19.9001 6.13295 19.643C6.24271 19.3857 6.21375 19.0903 6.05617 18.8591L5.05038 17.3839L6.49102 16.3537C6.58699 16.2851 6.66705 16.1966 6.72571 16.0942L8.95884 12.1957L9.85897 11.2311C10.7788 10.2453 11.0413 8.80293 10.5276 7.55639C10.2246 6.82114 9.69532 6.20902 9.03333 5.79649C9.75028 5.23285 10.5147 4.71245 11.3272 4.24347C14.308 2.52246 17.5611 1.68845 20.7799 1.65654L19.3151 3.49395L13.8834 5.39815C13.6628 5.47542 13.4857 5.64326 13.3966 5.85933L11.8796 9.53662C11.7719 9.79789 11.8061 10.096 11.9703 10.326L14.1858 13.4294C13.8685 13.7189 13.5596 14.1405 13.1908 14.6641C13.029 14.8937 12.8762 15.1105 12.7707 15.2321C12.6789 15.3379 12.587 15.4412 12.4959 15.5436C12.0194 16.0797 11.5268 16.6341 11.1767 17.3747C10.4071 19.0038 10.5626 20.8972 11.5824 22.3162C12.5685 23.6882 14.1942 24.3856 15.9293 24.1815C16.212 24.1484 16.4755 24.0831 16.7306 24.02C17.4338 23.846 17.6566 23.8286 17.8822 24.0397C17.992 24.1425 18.0021 24.162 17.9998 24.5105C17.9983 24.7323 17.9966 25.0083 18.073 25.3234C18.1955 25.8275 18.512 26.1758 18.7663 26.4557C18.8927 26.5948 19.0235 26.7387 19.0638 26.8352C19.3196 27.4483 19.2082 27.7878 18.9641 28.5319C18.9432 28.5955 18.9219 28.6605 18.9005 28.7271C18.5296 29.8751 19.0466 31.0139 19.5026 32.0184C19.6508 32.3447 19.7907 32.6526 19.8823 32.9248C20.6198 35.1133 21.1727 35.6145 21.6164 35.8163C21.8488 35.922 22.0893 35.9683 22.3323 35.9682C23.5148 35.9682 24.7487 34.8703 25.3155 34.1742C25.6716 33.7372 25.7593 33.2995 25.8232 32.9798C25.8551 32.8209 25.8803 32.6954 25.9282 32.6133C26.0015 32.4878 26.0879 32.3905 26.1972 32.2673C26.4171 32.0197 26.6909 31.7116 26.8682 31.153C27.0028 30.7287 27.1007 30.6247 27.4248 30.2795C27.4813 30.2196 27.5414 30.1554 27.6059 30.0852C28.6985 28.8963 28.4171 27.9882 28.1191 27.0266C27.8684 26.2175 28.307 25.7001 29.3675 24.7125C29.8272 24.2844 30.3025 23.8417 30.6699 23.3098C30.8307 23.077 31.3198 22.3689 31.0171 21.6669C30.7204 20.9787 29.9663 20.863 29.3604 20.7701C29.1211 20.7334 28.7595 20.6779 28.6445 20.6027C28.1369 20.2709 27.8264 19.5784 27.5261 18.9086C27.4663 18.7753 27.4073 18.6437 27.3475 18.516C27.2409 18.2881 27.1343 18.0124 27.0216 17.7206C26.7231 16.9481 26.3849 16.0726 25.8091 15.4623C25.2916 14.9139 24.316 14.6498 23.4552 14.4167C23.1658 14.3383 22.8925 14.2643 22.7123 14.1978C22.5613 14.142 22.3974 14.1319 22.241 14.1687C21.8221 14.2669 21.5607 14.3751 21.3666 14.5306C21.3154 14.5717 21.1635 14.7066 21.0746 14.9235C20.7743 14.7794 20.3614 14.5042 20.1072 14.3348C20.102 14.3313 20.0966 14.3277 20.0914 14.3242C20.177 13.9815 20.0995 13.7064 20.0183 13.5347C19.5601 12.5654 18.039 12.6413 17.7389 12.6668C17.5684 12.681 17.3528 12.6887 17.1246 12.6967C16.7663 12.7094 16.3703 12.7237 15.9784 12.7677L15.9986 12.7114C16.296 11.8826 17.0875 11.3258 17.968 11.3258H18.4344C18.8873 11.3258 19.2546 10.9585 19.2546 10.5056C19.2546 10.0527 18.8873 9.68534 18.4344 9.68534H17.968C16.6608 9.68534 15.4637 10.3733 14.7927 11.4562L13.5692 9.74236L14.773 6.82459L20.0806 4.96379C20.2262 4.91277 20.3545 4.82171 20.4507 4.70104L22.8102 1.74144C28.839 2.31492 34.5139 5.6951 37.7658 11.3275C38.6319 12.8278 39.2727 14.4072 39.6987 16.0227L39.3509 16.3327C38.8971 16.7377 38.6311 17.3186 38.6209 17.9265C38.6209 17.9332 38.6207 17.9397 38.6204 17.9463L38.0539 16.3884C37.9695 16.1559 37.8452 15.9427 37.6845 15.7548L36.674 14.5716C36.2822 14.113 35.7118 13.8501 35.1088 13.8501H33.8718C33.4327 13.8501 33.0314 14.0906 32.8243 14.4775C32.6171 14.8646 32.6398 15.332 32.8833 15.6972L33.0085 15.8851C32.2092 16.5724 31.2847 17.1225 30.3003 17.4934L28.6048 14.2455V13.521C28.6048 13.2969 28.513 13.0823 28.3509 12.9277L26.824 11.4701C26.7398 11.3897 26.6394 11.3282 26.5295 11.2895L25.1551 10.8065C24.7275 10.6561 24.2594 10.8811 24.1093 11.3084C23.9591 11.7359 24.1838 12.204 24.6111 12.3542L25.819 12.7787L26.9643 13.872V14.4468C26.9643 14.579 26.9963 14.7093 27.0575 14.8265L29.1802 18.8925C29.3711 19.2584 29.8044 19.4256 30.1911 19.2825L30.8092 19.0546C32.2451 18.525 33.5761 17.6731 34.6582 16.5911C34.9347 16.3146 34.9777 15.8816 34.7607 15.5562L34.7171 15.4906H35.1088C35.2312 15.4906 35.3471 15.544 35.4267 15.6372L36.4373 16.8203C36.4698 16.8585 36.495 16.9016 36.5122 16.949L37.6275 20.0155C37.7233 20.279 37.947 20.4752 38.2205 20.5359C38.2796 20.549 38.3391 20.5554 38.3982 20.5554C38.6134 20.5554 38.8228 20.4706 38.9782 20.3151L39.509 19.7843C39.8452 19.448 40.0766 19.0226 40.1872 18.551C41.0081 25.1304 38.4283 31.9363 32.9754 36.2162C32.619 36.4959 32.5568 37.0114 32.8366 37.3679C33.1162 37.7243 33.6317 37.7865 33.9882 37.5067C37.9251 34.4168 40.6296 29.9973 41.6038 25.0624C42.587 20.0799 41.7285 14.9107 39.1863 10.5075ZM3.87906 23.195L7.26145 25.7668C7.36145 25.8428 7.47744 25.8948 7.60065 25.9188L9.63929 26.3172C9.8995 26.368 10.1166 26.5219 10.2507 26.7506C10.3848 26.9793 10.413 27.2438 10.3305 27.4957C10.1607 28.0136 10.1599 28.5613 10.3283 29.0795L10.5881 29.8791C10.7434 30.3571 10.4808 30.8723 10.0029 31.0276L9.18779 31.2925C8.90339 31.3848 8.69191 31.6247 8.63572 31.9182L7.97964 35.3429C6.53728 34.0228 5.27088 32.4626 4.24295 30.6821C2.98886 28.5101 2.20529 26.1935 1.85994 23.851L3.87906 23.195ZM8.65959 10.1119L7.69466 11.1457C7.65159 11.1919 7.61394 11.243 7.58252 11.2978L5.3913 15.1234L3.4438 16.5159C3.08106 16.7753 2.99197 17.2768 3.24315 17.6452L3.97151 18.7136C3.55167 18.7761 3.1749 18.8276 2.92438 18.855C2.87623 18.8088 2.82586 18.7619 2.77377 18.7135C2.57878 18.5324 2.30783 18.2905 1.90391 17.937C2.57009 13.8139 4.55688 9.92955 7.68162 6.96453C8.27995 7.15296 8.77099 7.59929 9.01085 8.18147C9.28074 8.83624 9.14276 9.59404 8.65959 10.1119ZM15.3476 14.5943C15.7135 14.3884 16.5626 14.3583 17.1826 14.3364C17.4311 14.3276 17.6659 14.3192 17.8756 14.3017C17.9862 14.2924 18.1091 14.2941 18.225 14.3031C18.1733 14.436 18.1564 14.5819 18.1789 14.7266C18.2184 14.9811 18.3753 15.2022 18.6024 15.3237C18.7562 15.406 18.9704 15.5489 19.1972 15.7C19.8382 16.1274 20.565 16.6118 21.2476 16.6553C21.8684 16.6956 22.2139 16.3418 22.3618 16.1911C22.3737 16.1791 22.3848 16.1671 22.3966 16.1562C22.48 16.0883 22.5581 15.9972 22.6161 15.8874C22.7473 15.9249 22.8851 15.9622 23.0264 16.0005C23.5121 16.132 24.4162 16.3768 24.6159 16.5884C24.9707 16.9646 25.2472 17.6804 25.4913 18.312C25.6146 18.6312 25.731 18.9324 25.8617 19.2117C25.9178 19.3316 25.973 19.455 26.0291 19.58C26.4076 20.4243 26.8367 21.3813 27.7468 21.9762C28.1595 22.246 28.6654 22.3235 29.1118 22.392C29.1658 22.4003 29.2276 22.4098 29.2905 22.4201C29.0255 22.7898 28.6482 23.141 28.2496 23.5122C27.2342 24.4579 25.9704 25.6348 26.5524 27.5125C26.8271 28.3991 26.8399 28.4949 26.3982 28.9754C26.338 29.0409 26.2819 29.1007 26.2293 29.1566C25.851 29.5594 25.5521 29.8775 25.3047 30.6568C25.2329 30.8831 25.1398 30.988 24.9707 31.1783C24.8355 31.3305 24.6671 31.5202 24.5118 31.786C24.3258 32.1044 24.2642 32.411 24.2149 32.6574C24.1663 32.8998 24.1387 33.0214 24.0436 33.1382C23.8269 33.4042 23.4228 33.7904 23.008 34.054C22.6225 34.2987 22.3974 34.3322 22.3207 34.3276C22.2331 34.2338 21.9161 33.8229 21.437 32.401C21.3189 32.0503 21.155 31.6893 20.9965 31.3403C20.6471 30.5708 20.286 29.7751 20.4617 29.2313C20.4824 29.1672 20.5029 29.1045 20.5231 29.0432C20.8038 28.1877 21.0688 27.3797 20.5779 26.2034C20.4285 25.8452 20.1905 25.5834 19.9807 25.3524C19.845 25.203 19.6912 25.0337 19.6674 24.9363C19.6386 24.8174 19.6395 24.6802 19.6405 24.5213C19.6433 24.0927 19.6476 23.445 19.0037 22.8421C18.096 21.9924 17.0374 22.2542 16.3369 22.4274C16.1217 22.4806 15.9185 22.5309 15.7383 22.5521C14.5859 22.6871 13.5571 22.2524 12.9148 21.3586C12.2429 20.4236 12.1453 19.1655 12.6603 18.0753C12.9096 17.5478 13.2862 17.1239 13.7223 16.6334C13.8176 16.5262 13.9137 16.4181 14.0098 16.3073C14.1698 16.1229 14.3458 15.8732 14.532 15.6088C14.7542 15.2934 15.168 14.7061 15.3476 14.5943Z" fill="url(#paint1_linear)"/>
<path d="M33.6345 28.2415L33.2399 26.754C33.1537 26.4291 32.878 26.1898 32.5444 26.1499C32.2104 26.1109 31.8864 26.2779 31.7261 26.5733C31.6362 26.739 31.5552 26.9145 31.4769 27.0842C31.3453 27.3698 31.2091 27.6651 31.0674 27.8281C30.9879 27.9196 30.7834 28.0183 30.5859 28.1136C30.1137 28.3415 29.4668 28.6537 29.2198 29.4413C29.0664 29.9299 29.1236 30.3164 29.1655 30.5986C29.2016 30.8433 29.21 30.9281 29.1445 31.082L29.1363 31.1011C28.8752 31.7138 28.3894 32.8545 29.0706 33.8242C29.5566 34.5162 30.0676 34.6941 30.4648 34.6941C30.5423 34.6943 30.6156 34.6875 30.6834 34.6765C31.5202 34.5397 32.1492 33.6694 32.6632 31.9372L33.628 28.6854C33.6709 28.5408 33.6732 28.3872 33.6345 28.2415ZM31.0906 31.4705C30.8286 32.3537 30.5967 32.766 30.4629 32.9487C30.4475 32.929 30.4308 32.9067 30.4129 32.8812C30.2561 32.6579 30.4904 32.108 30.6455 31.744L30.6538 31.7248C30.9038 31.138 30.8369 30.6873 30.7883 30.3582C30.757 30.1474 30.7459 30.0569 30.785 29.9324C30.8172 29.8301 31.0094 29.7309 31.2989 29.5911C31.4273 29.5291 31.5686 29.4609 31.7113 29.3784L31.0906 31.4705Z" fill="url(#paint2_linear)"/>
<path d="M22.1507 9.75026L22.0954 9.7309C21.6682 9.58128 21.1998 9.80596 21.0499 10.2334C20.8999 10.661 21.1249 11.129 21.5524 11.2789L21.6077 11.2983C21.6975 11.3298 21.7891 11.3447 21.8792 11.3447C22.2178 11.3447 22.5348 11.1333 22.6533 10.7958C22.8032 10.3682 22.5782 9.90013 22.1507 9.75026Z" fill="url(#paint3_linear)"/>
</g>
<defs>
<linearGradient id="paint0_linear" x1="31.9115" y1="37.6553" x2="30.2526" y2="39.3274" gradientUnits="userSpaceOnUse">
<stop stop-color="#FFEEA8"/>
<stop offset="1" stop-color="#FFDE6F"/>
</linearGradient>
<linearGradient id="paint1_linear" x1="42.0005" y1="0.000977814" x2="0.000658691" y2="42.001" gradientUnits="userSpaceOnUse">
<stop stop-color="#FFEEA8"/>
<stop offset="1" stop-color="#FFDE6F"/>
</linearGradient>
<linearGradient id="paint2_linear" x1="33.662" y1="26.1443" x2="26.2557" y2="30.4226" gradientUnits="userSpaceOnUse">
<stop stop-color="#FFEEA8"/>
<stop offset="1" stop-color="#FFDE6F"/>
</linearGradient>
<linearGradient id="paint3_linear" x1="22.6997" y1="9.68457" x2="21.04" y2="11.3805" gradientUnits="userSpaceOnUse">
<stop stop-color="#FFEEA8"/>
<stop offset="1" stop-color="#FFDE6F"/>
</linearGradient>
<clipPath id="clip0">
<rect width="42" height="42" fill="white"/>
</clipPath>
</defs>
</svg>
