<svg width="42" height="42" viewBox="0 0 42 42" fill="none" xmlns="http://www.w3.org/2000/svg">
<g clip-path="url(#clip0)">
<path d="M41.1796 40.3594H40.5234V16.4062C40.5234 15.9532 40.1561 15.5859 39.703 15.5859H33.1406C32.6875 15.5859 32.3203 15.9532 32.3203 16.4062V25.1836C32.3203 25.6366 32.6875 26.0039 33.1406 26.0039C33.5936 26.0039 33.9609 25.6366 33.9609 25.1836V17.2266H38.8827V40.3594H33.9609V33.2214C33.9609 32.7684 33.5936 32.4011 33.1406 32.4011C32.6875 32.4011 32.3203 32.7684 32.3203 33.2214V40.3594H30.3515V21.8203C30.3515 21.3672 29.9843 21 29.5312 21H22.9687C22.5156 21 22.1484 21.3672 22.1484 21.8203V40.3594H19.8515V26.9062C19.8515 26.4532 19.4843 26.0859 19.0312 26.0859H12.4687C12.0157 26.0859 11.6484 26.4532 11.6484 26.9062V40.3594H9.67967V32.1562C9.67967 31.7032 9.31242 31.3359 8.85936 31.3359H2.29687C1.84381 31.3359 1.47656 31.7032 1.47656 32.1562V40.3594H0.820311C0.367253 40.3594 0 40.7266 0 41.1797C0 41.6327 0.367253 42 0.820311 42H41.1796C41.6327 42 41.9999 41.6327 41.9999 41.1797C41.9999 40.7266 41.6327 40.3594 41.1796 40.3594ZM8.03905 40.3594H3.11718V32.9765H8.03905V40.3594ZM18.2109 40.3594H13.289V27.7266H18.2109V40.3594ZM28.7109 40.3594H23.789V22.6406H28.7109V40.3594Z" fill="url(#paint0_linear)"/>
<path d="M33.7206 28.4502C33.568 28.2976 33.3564 28.2107 33.1406 28.2107C32.9249 28.2107 32.7132 28.2976 32.5607 28.4502C32.4081 28.6028 32.3203 28.8144 32.3203 29.031C32.3203 29.2467 32.4081 29.4576 32.5607 29.611C32.7132 29.7636 32.9249 29.8513 33.1406 29.8513C33.3564 29.8513 33.568 29.7635 33.7206 29.611C33.8732 29.4576 33.9609 29.2467 33.9609 29.031C33.9609 28.8144 33.8732 28.6028 33.7206 28.4502Z" fill="url(#paint1_linear)"/>
<path d="M35.7656 0C32.3279 0 29.5312 2.79669 29.5312 6.23436C29.5312 9.67204 32.328 12.4687 35.7656 12.4687C39.2033 12.4687 42 9.67204 42 6.23436C42 2.79669 39.2033 0 35.7656 0ZM35.7656 8.62089C35.2526 8.62089 34.8353 8.27612 34.8353 7.85243C34.8353 7.39937 34.4681 7.03212 34.015 7.03212C33.5619 7.03212 33.1947 7.39937 33.1947 7.85243C33.1947 8.91202 33.9289 9.81338 34.9453 10.135V10.7533C32.8026 10.3652 31.1719 8.48727 31.1719 6.23436C31.1719 3.98146 32.8026 2.10352 34.9453 1.71543V2.39227C33.9289 2.71392 33.1947 3.61527 33.1947 4.67487C33.1947 6.00328 34.348 7.08396 35.7656 7.08396C36.2786 7.08396 36.6959 7.42865 36.6959 7.85243C36.6959 8.2762 36.2787 8.62089 35.7656 8.62089ZM36.5859 10.7533V10.135C37.6024 9.81338 38.3366 8.91202 38.3366 7.85243C38.3366 6.5241 37.1832 5.44334 35.7656 5.44334C35.2527 5.44334 34.8353 5.09856 34.8353 4.67487C34.8353 4.25118 35.2526 3.9064 35.7656 3.9064C36.2787 3.9064 36.6959 4.25118 36.6959 4.67487C36.6959 5.12793 37.0632 5.49518 37.5163 5.49518C37.9693 5.49518 38.3366 5.12793 38.3366 4.67487C38.3366 3.61527 37.6024 2.71392 36.5859 2.39227V1.71543C38.7288 2.10352 40.3594 3.98146 40.3594 6.23436C40.3594 8.48727 38.7287 10.3652 36.5859 10.7533Z" fill="url(#paint2_linear)"/>
<path d="M29.2026 10.6121H25.9911C25.538 10.6121 25.1708 10.9793 25.1708 11.4324C25.1708 11.8854 25.538 12.2527 25.9911 12.2527H27.2221L18.4515 21.0234L13.9955 16.5674C13.6751 16.2472 13.1557 16.2472 12.8353 16.5674L3.91408 25.4886C3.59375 25.8089 3.59375 26.3283 3.91408 26.6486C4.0742 26.8089 4.2842 26.889 4.49412 26.889C4.70404 26.889 4.91404 26.8089 5.07416 26.6487L13.4153 18.3076L17.8713 22.7636C18.1917 23.0839 18.7111 23.0839 19.0315 22.7636L28.3823 13.4128V14.6439C28.3823 15.0969 28.7496 15.4642 29.2026 15.4642C29.6557 15.4642 30.0229 15.0969 30.0229 14.6439V11.4324C30.0229 10.9793 29.6557 10.6121 29.2026 10.6121Z" fill="url(#paint3_linear)"/>
<path d="M2.94177 27.6217C2.7892 27.4691 2.57756 27.3813 2.36181 27.3813C2.14607 27.3813 1.93443 27.4691 1.78185 27.6217C1.62928 27.7743 1.5415 27.9859 1.5415 28.2017C1.5415 28.4174 1.62928 28.629 1.78185 28.7816C1.93443 28.9341 2.14607 29.022 2.36181 29.022C2.57756 29.022 2.7892 28.9342 2.94177 28.7816C3.09435 28.629 3.18213 28.4174 3.18213 28.2017C3.18213 27.9859 3.09435 27.7743 2.94177 27.6217Z" fill="url(#paint4_linear)"/>
</g>
<defs>
<linearGradient id="paint0_linear" x1="41.9999" y1="15.5859" x2="18.1924" y2="53.4413" gradientUnits="userSpaceOnUse">
<stop stop-color="#C5CDFE"/>
<stop offset="1" stop-color="#98A5FD"/>
</linearGradient>
<linearGradient id="paint1_linear" x1="33.9609" y1="28.2107" x2="32.3203" y2="29.8513" gradientUnits="userSpaceOnUse">
<stop stop-color="#C5CDFE"/>
<stop offset="1" stop-color="#98A5FD"/>
</linearGradient>
<linearGradient id="paint2_linear" x1="42" y1="3.71597e-07" x2="29.5313" y2="12.4688" gradientUnits="userSpaceOnUse">
<stop stop-color="#C5CDFE"/>
<stop offset="1" stop-color="#98A5FD"/>
</linearGradient>
<linearGradient id="paint3_linear" x1="30.0229" y1="10.6121" x2="15.4675" y2="34.1744" gradientUnits="userSpaceOnUse">
<stop stop-color="#C5CDFE"/>
<stop offset="1" stop-color="#98A5FD"/>
</linearGradient>
<linearGradient id="paint4_linear" x1="3.18213" y1="27.3813" x2="1.5415" y2="29.022" gradientUnits="userSpaceOnUse">
<stop stop-color="#C5CDFE"/>
<stop offset="1" stop-color="#98A5FD"/>
</linearGradient>
<clipPath id="clip0">
<rect width="42" height="42" fill="white"/>
</clipPath>
</defs>
</svg>
