<svg width="270" height="66" viewBox="0 0 270 66" fill="none" xmlns="http://www.w3.org/2000/svg">
<path d="M55.0886 39.6333C54.7319 38.868 54.4042 37.9767 53.9414 37.1629C47.3472 25.644 40.8204 14.0766 33.9948 2.69335C33.1657 1.30798 30.7363 0.242309 29.001 0.174494C21.5102 -0.106455 14.0097 0.0291753 6.50925 0.058239C0.00179409 0.0969906 -1.61784 2.8096 1.61179 8.42858C7.10697 18.0002 12.7082 27.5137 18.2612 37.0563C23.1683 45.4945 27.9887 53.9811 33.0115 62.3417C35.6916 66.8175 39.2876 67.0016 41.9291 62.7389C46.2192 55.8024 50.1815 48.6721 54.2692 41.6096C54.5777 41.0574 54.7608 40.4277 55.0886 39.6333ZM37.9475 0.804207C44.5321 12.265 50.9239 23.3673 57.4313 34.6925C60.8827 31.757 61.278 29.2963 59.2052 25.9249C54.7609 18.7171 50.5479 11.3446 46.5181 3.89465C44.6863 0.532946 42.4883 -0.842736 37.9475 0.804207ZM49.5067 0.784831C54.1921 8.90329 58.6653 16.6342 63.2254 24.5299C66.9178 21.6913 67.1009 19.1337 64.9607 15.8786C62.4252 12.0228 60.1114 7.98294 58.0483 3.85589C56.3323 0.416691 54.0282 -0.813672 49.5067 0.784831ZM60.6802 0.0776148C63.9195 5.64816 66.4646 10.0562 69.4918 15.2682C71.6224 11.6256 73.3095 9.12611 74.5917 6.43288C76.2114 3.02274 74.6303 0.37794 70.8608 0.116366C67.8915 -0.0870795 64.8932 0.0776148 60.6802 0.0776148Z" fill="white"/>
<path d="M120.599 13.4326L110.452 42.0762H105.521L95.3731 13.4326H100.63L107.966 34.5061L115.342 13.4326H120.599Z" fill="white"/>
<path d="M130.15 42.4854C128.004 42.4854 126.143 42.008 124.567 41.0532C122.991 40.0984 121.782 38.8163 120.94 37.2068C120.098 35.5973 119.677 33.8241 119.677 31.8872C119.677 29.9504 120.098 28.1636 120.94 26.5268C121.782 24.89 122.991 23.5943 124.567 22.6395C126.143 21.6847 128.004 21.2073 130.15 21.2073C132.296 21.2073 134.158 21.6847 135.733 22.6395C137.309 23.5943 138.518 24.89 139.36 26.5268C140.203 28.1636 140.624 29.9504 140.624 31.8872C140.624 33.8241 140.203 35.5973 139.36 37.2068C138.518 38.8163 137.309 40.0984 135.733 41.0532C134.158 42.008 132.296 42.4854 130.15 42.4854ZM130.15 38.3116C131.807 38.3116 133.098 37.7251 134.022 36.5521C134.973 35.379 135.448 33.8241 135.448 31.8872C135.448 29.9231 134.973 28.3545 134.022 27.1815C133.098 25.9812 131.807 25.3811 130.15 25.3811C128.493 25.3811 127.189 25.9812 126.238 27.1815C125.314 28.3545 124.852 29.9231 124.852 31.8872C124.852 33.8241 125.314 35.379 126.238 36.5521C127.189 37.7251 128.493 38.3116 130.15 38.3116Z" fill="white"/>
<path d="M152.21 52.3878C149.33 52.3878 147.035 51.8559 145.323 50.792C143.611 49.7554 142.756 48.3368 142.756 46.5364C142.756 44.5722 143.856 42.9627 146.057 41.7079C144.861 40.9713 144.263 40.0029 144.263 38.8026C144.263 38.1752 144.44 37.616 144.793 37.1249C145.174 36.6339 145.676 36.2383 146.301 35.9383C145.269 35.2017 144.481 34.2606 143.937 33.1148C143.421 31.9691 143.163 30.7142 143.163 29.3502C143.163 27.8499 143.489 26.4859 144.141 25.2583C144.793 24.0034 145.744 23.0214 146.994 22.3121C148.244 21.5756 149.724 21.2073 151.436 21.2073C153.229 21.2073 154.778 21.6438 156.082 22.5167C156.544 22.2712 157.155 22.0666 157.916 21.9029C158.704 21.712 159.546 21.6165 160.442 21.6165H161.746L161.42 24.8082H159.587C159.125 24.8082 158.744 24.8218 158.445 24.8491C159.261 26.104 159.668 27.6044 159.668 29.3502C159.668 30.8506 159.342 32.2282 158.69 33.4831C158.065 34.7107 157.128 35.6927 155.878 36.4293C154.628 37.1386 153.148 37.4932 151.436 37.4932C150.811 37.4932 150.091 37.3977 149.276 37.2068C148.977 37.3432 148.828 37.5614 148.828 37.8615C148.828 38.2161 149.032 38.5025 149.439 38.7208C149.874 38.9117 150.594 39.0754 151.599 39.2118L155.104 39.6619C159.777 40.2894 162.113 42.2671 162.113 45.5952C162.113 47.6685 161.23 49.3189 159.464 50.5465C157.726 51.774 155.308 52.3878 152.21 52.3878ZM151.436 33.7286C152.604 33.7286 153.501 33.3467 154.126 32.5829C154.778 31.7918 155.104 30.7142 155.104 29.3502C155.104 27.9863 154.778 26.9224 154.126 26.1585C153.501 25.3674 152.604 24.9719 151.436 24.9719C150.241 24.9719 149.317 25.3674 148.665 26.1585C148.04 26.9224 147.727 27.9863 147.727 29.3502C147.727 30.7142 148.04 31.7918 148.665 32.5829C149.317 33.3467 150.241 33.7286 151.436 33.7286ZM152.414 48.5414C155.892 48.5414 157.63 47.6821 157.63 45.9635C157.63 45.1997 157.332 44.6268 156.734 44.2449C156.136 43.8903 155.145 43.6038 153.759 43.3856L149.276 42.7309C147.727 43.3583 146.953 44.3131 146.953 45.5952C146.953 46.5773 147.429 47.3138 148.379 47.8049C149.33 48.2959 150.675 48.5414 152.414 48.5414Z" fill="white"/>
<path d="M182.326 21.6165V42.0762H177.598L177.517 40.8486C176.892 41.3123 176.172 41.7079 175.357 42.0352C174.542 42.3353 173.754 42.4854 172.993 42.4854C169.978 42.4854 167.777 41.6124 166.391 39.8665C165.033 38.1206 164.354 35.7064 164.354 32.6238V21.6165H169.407V32.6238C169.407 34.5334 169.72 35.9519 170.344 36.8794C170.996 37.7796 172.029 38.2297 173.442 38.2297C175.017 38.2297 176.294 37.6569 177.272 36.5111V21.6165H182.326Z" fill="white"/>
<path d="M196.865 42.4854C194.501 42.4854 192.477 42.008 190.793 41.0532C189.135 40.0711 187.886 38.7753 187.043 37.1658C186.228 35.5291 185.821 33.715 185.821 31.7236C185.821 29.814 186.215 28.0681 187.003 26.4859C187.79 24.9037 188.932 23.6488 190.426 22.7213C191.92 21.7665 193.7 21.2891 195.764 21.2891C197.666 21.2891 199.269 21.6847 200.573 22.4758C201.905 23.2669 202.896 24.3308 203.548 25.6675C204.228 27.0042 204.567 28.5046 204.567 30.1686C204.567 30.987 204.458 31.9145 204.241 32.9511H191.078C191.35 34.7516 192.056 36.1019 193.197 37.0022C194.338 37.8751 195.71 38.3116 197.313 38.3116C199.514 38.3116 201.551 37.7524 203.426 36.6339L203.671 40.9304C202.801 41.3942 201.782 41.7761 200.614 42.0762C199.473 42.349 198.223 42.4854 196.865 42.4854ZM199.432 29.5139C199.432 28.45 199.133 27.5089 198.536 26.6905C197.938 25.8721 197.014 25.4629 195.764 25.4629C194.515 25.4629 193.509 25.8312 192.749 26.5677C191.988 27.3043 191.472 28.2863 191.2 29.5139H199.432Z" fill="white"/>
<path d="M208.154 13.4326H218.302C225.067 13.4326 228.449 16.5152 228.449 22.6804C228.449 25.8721 227.594 28.2454 225.882 29.8004C224.17 31.3553 221.684 32.1328 218.424 32.1328H213.371V42.0762H208.154V13.4326ZM217.813 27.7544C219.606 27.7544 220.937 27.3452 221.807 26.5268C222.703 25.7084 223.151 24.4536 223.151 22.7622C223.151 21.0709 222.703 19.8297 221.807 19.0386C220.91 18.2202 219.538 17.811 217.691 17.811H213.371V27.7544H217.813Z" fill="white"/>
<path d="M235.541 42.4854C233.856 42.4854 232.444 41.9398 231.302 40.8486C230.189 39.7301 229.632 38.2297 229.632 36.3475C229.632 34.5743 230.27 33.1557 231.547 32.0918C232.824 31.0007 234.332 30.2368 236.071 29.8004C237.809 29.3366 239.48 29.0774 241.083 29.0229C241.029 27.8226 240.716 26.9633 240.146 26.445C239.602 25.9267 238.692 25.6675 237.415 25.6675C236.519 25.6675 235.636 25.7903 234.766 26.0358C233.924 26.2813 232.946 26.6768 231.832 27.2224L231.384 23.0896C233.856 21.8893 236.329 21.2891 238.801 21.2891C241.192 21.2891 243.012 21.9438 244.262 23.2533C245.539 24.5627 246.177 26.6496 246.177 29.5139V35.038C246.177 36.0747 246.218 36.8248 246.3 37.2886C246.408 37.7251 246.571 38.0115 246.789 38.1479C247.033 38.257 247.427 38.3116 247.97 38.3116H248.622L248.174 42.4854H246.34C245.226 42.4854 244.289 42.2808 243.528 41.8716C242.768 41.4351 242.183 40.8486 241.776 40.112C241.124 40.8486 240.227 41.4351 239.086 41.8716C237.972 42.2808 236.791 42.4854 235.541 42.4854ZM237.66 38.598C238.176 38.598 238.76 38.4753 239.412 38.2297C240.064 37.9569 240.635 37.5887 241.124 37.1249V32.4601C239.494 32.542 238.054 32.8966 236.804 33.524C235.554 34.1514 234.929 35.0244 234.929 36.1429C234.929 36.9885 235.147 37.616 235.582 38.0251C236.016 38.4071 236.709 38.598 237.66 38.598Z" fill="white"/>
<path d="M256.715 40.7258L248.238 21.6165H253.862L259.078 34.7925L264.376 21.6165H270L257.244 51.9786H252.191L256.715 40.7258Z" fill="white"/>
</svg>
